stateDiagram-v2
    direction LR
    [*] --> q00
    q00 --> q10 : a
    q00 --> q01 : b
    q10 --> q20 : a
    q10 --> q11 : b
    q20 --> q30 : a
    q20 --> q21 : b
    q01 --> q11 : a
    q01 --> q02 : b
    q11 --> q21 : a
    q11 --> q12 : b
    q21 --> q31 : a
    q21 --> q22 : b
    q02 --> q12 : a
    q02 --> q02 : b
    q12 --> q22 : a
    q12 --> q12 : b
    q22 --> q32 : a
    q22 --> q22 : b
    q30 --> q30 : a
    q30 --> q31 : b
    q31 --> q31 : a
    q31 --> q32 : b
    q32 --> q32 : a
    q32 --> q32 : b
    classDef accept fill:#9FE1CB,stroke:#0F6E56,stroke-width:3px
    class q32 accept
